<?xml version="1.0" encoding="UTF-8" standalone="no"?>
<svg
   width="40"
   height="30"
   fill="currentColor"
   viewBox="0 0 40 30"
   version="1.1"
   id="svg4"
   sodipodi:docname="mail-ru.svg"
   inkscape:version="1.2.2 (1:1.2.2+202212051552+b0a8486541)"
   xmlns:inkscape="http://www.inkscape.org/namespaces/inkscape"
   xmlns:sodipodi="http://sodipodi.sourceforge.net/DTD/sodipodi-0.dtd"
   xmlns="http://www.w3.org/2000/svg"
   xmlns:svg="http://www.w3.org/2000/svg">
  <defs
     id="defs8" />
  <sodipodi:namedview
     id="namedview6"
     pagecolor="#ffffff"
     bordercolor="#000000"
     borderopacity="0.25"
     inkscape:showpageshadow="2"
     inkscape:pageopacity="0.0"
     inkscape:pagecheckerboard="0"
     inkscape:deskcolor="#d1d1d1"
     showgrid="false"
     inkscape:zoom="7.4375"
     inkscape:cx="20.033613"
     inkscape:cy="15.12605"
     inkscape:window-width="1292"
     inkscape:window-height="704"
     inkscape:window-x="0"
     inkscape:window-y="0"
     inkscape:window-maximized="1"
     inkscape:current-layer="svg4" />
  <path
     d="m 27.710774,0 c 1.951201,0 3.609722,1.732852 3.609722,4.00722 0,2.274369 -1.56096,4.00722 -3.609722,4.00722 -1.951201,0 -3.609722,-1.732851 -3.609722,-4.00722 C 24.101052,1.732852 25.759573,0 27.710774,0 Z M 12.393845,0 c 1.951201,0 3.609722,1.732852 3.609722,4.00722 0,2.274369 -1.560961,4.00722 -3.609722,4.00722 -1.951201,0 -3.609722,-1.732851 -3.609722,-4.00722 C 8.784123,1.732852 10.442644,0 12.393845,0 Z m 27.511937,26.425993 c -0.19512,0.649819 -0.4878,1.191335 -0.975601,1.516245 -0.29268,0.216607 -0.68292,0.32491 -1.073161,0.32491 -0.78048,0 -1.4634,-0.433213 -1.853641,-1.191336 l -1.756081,-3.3574 -0.4878,0.541516 C 30.540016,27.942238 25.466893,30 20.00353,30 14.540166,30 9.564603,27.942238 6.247561,24.259928 l -0.4878,-0.541516 -1.756081,3.3574 c -0.39024,0.758123 -1.073161,1.191336 -1.853641,1.191336 -0.39024,0 -0.780481,-0.108303 -1.073161,-0.32491 -1.07316,-0.649819 -1.365841,-2.166065 -0.78048,-3.357401 L 4.78416,16.028881 c 0.390241,-0.758123 1.073161,-1.191336 1.853642,-1.191336 0.39024,0 0.78048,0.108303 1.07316,0.32491 1.073161,0.649819 1.365841,2.166065 0.780481,3.3574 l -0.390241,0.758123 0.195121,0.32491 c 2.146321,3.357401 6.731644,5.631769 11.609647,5.631769 4.878003,0 9.463325,-2.166065 11.609647,-5.631769 l 0.19512,-0.32491 -0.390241,-0.649819 c -0.29268,-0.541516 -0.39024,-1.191336 -0.195119,-1.841156 0.195119,-0.649819 0.4878,-1.191335 0.9756,-1.516245 0.29268,-0.216606 0.682921,-0.32491 1.073161,-0.32491 0.78048,0 1.4634,0.433213 1.853641,1.191336 l 4.487762,8.555957 c 0.487801,0.541516 0.585361,1.191335 0.390241,1.732852 z"
     id="path2" />
</svg>
