<?xml version="1.0" encoding="UTF-8" standalone="no"?>
<svg
   width="35.460938"
   height="29.550781"
   fill="currentColor"
   viewBox="0 0 35.460938 29.550781"
   version="1.1"
   id="svg4"
   sodipodi:docname="hatena.svg"
   inkscape:version="1.2.2 (1:1.2.2+202212051552+b0a8486541)"
   xmlns:inkscape="http://www.inkscape.org/namespaces/inkscape"
   xmlns:sodipodi="http://sodipodi.sourceforge.net/DTD/sodipodi-0.dtd"
   xmlns="http://www.w3.org/2000/svg"
   xmlns:svg="http://www.w3.org/2000/svg">
  <defs
     id="defs8" />
  <sodipodi:namedview
     id="namedview6"
     pagecolor="#ffffff"
     bordercolor="#000000"
     borderopacity="0.25"
     inkscape:showpageshadow="2"
     inkscape:pageopacity="0.0"
     inkscape:pagecheckerboard="0"
     inkscape:deskcolor="#d1d1d1"
     showgrid="false"
     inkscape:zoom="7.4375"
     inkscape:cx="17.210084"
     inkscape:cy="14.319328"
     inkscape:window-width="1292"
     inkscape:window-height="704"
     inkscape:window-x="0"
     inkscape:window-y="0"
     inkscape:window-maximized="1"
     inkscape:current-layer="svg4" />
  <path
     d="m 21.394531,15.824219 c -1.175781,-1.320313 -2.816406,-2.054688 -4.910156,-2.210938 1.871094,-0.507812 3.222656,-1.25 4.082032,-2.25 0.855468,-1 1.273437,-2.3125 1.273437,-3.992188 C 21.859375,6.144531 21.5625,4.929687 20.980469,3.847656 20.390625,2.828125 19.523438,1.988281 18.484375,1.429687 17.535157,0.910156 16.40625,0.535156 15.078125,0.3125 13.753907,0.09375 11.425781,0 8.097657,0 H 0 v 29.539062 h 8.34375 c 3.355469,0 5.773438,-0.113281 7.253907,-0.339843 1.484374,-0.234376 2.71875,-0.625 3.71875,-1.15625 1.203124,-0.625 2.195312,-1.59375 2.847656,-2.78125 0.664062,-1.195313 1,-2.589844 1,-4.175782 0,-2.195312 -0.585938,-3.949218 -1.769532,-5.261718 z M 7.488281,6.539062 h 1.726563 c 2.003906,0 3.347656,0.226563 4.03125,0.675781 0.6875,0.457032 1.027344,1.238282 1.027344,2.339844 0,1.105469 -0.378907,1.820313 -1.105469,2.265625 -0.726562,0.441407 -2.09375,0.648438 -4.082031,0.648438 H 7.488281 Z m 6.863282,16.941407 c -0.792969,0.480468 -2.144532,0.714843 -4.042969,0.714843 H 7.488281 v -6.4375 h 2.9375 c 1.949219,0 3.300782,0.25 4.015626,0.742188 0.714843,0.496093 1.09375,1.351562 1.09375,2.601562 0,1.246094 -0.390626,1.910157 -1.199219,2.390625 z m 0,0 M 31.71875,22.0625 c -2.066406,0 -3.746093,1.675781 -3.746093,3.742187 0,2.070313 1.679687,3.746094 3.746093,3.746094 2.066407,0 3.742188,-1.675781 3.742188,-3.746094 0,-2.066406 -1.675781,-3.742187 -3.742188,-3.742187 z m 0,0 M 28.46875,0 h 6.5 v 19.699219 h -6.5 z m 0,0"
     id="path2" />
</svg>
