<?xml version="1.0" encoding="UTF-8" standalone="no"?>
<svg
   width="18"
   height="30"
   fill="currentColor"
   viewBox="0 0 18 30"
   version="1.1"
   id="svg4"
   sodipodi:docname="odnoklassniki.svg"
   inkscape:version="1.2.2 (1:1.2.2+202212051552+b0a8486541)"
   xmlns:inkscape="http://www.inkscape.org/namespaces/inkscape"
   xmlns:sodipodi="http://sodipodi.sourceforge.net/DTD/sodipodi-0.dtd"
   xmlns="http://www.w3.org/2000/svg"
   xmlns:svg="http://www.w3.org/2000/svg">
  <defs
     id="defs8" />
  <sodipodi:namedview
     id="namedview6"
     pagecolor="#ffffff"
     bordercolor="#000000"
     borderopacity="0.25"
     inkscape:showpageshadow="2"
     inkscape:pageopacity="0.0"
     inkscape:pagecheckerboard="0"
     inkscape:deskcolor="#d1d1d1"
     showgrid="false"
     inkscape:zoom="7.4375"
     inkscape:cx="9.0084034"
     inkscape:cy="17.008403"
     inkscape:window-width="1292"
     inkscape:window-height="704"
     inkscape:window-x="0"
     inkscape:window-y="0"
     inkscape:window-maximized="1"
     inkscape:current-layer="svg4" />
  <path
     d="m 16,15 c -1,0 -3,2 -7,2 -4,0 -6,-2 -7,-2 -1.1,0 -2,0.9 -2,2 0,1 0.6,1.5 1,1.7 1.2,0.7 5,2.3 5,2.3 l -4.3,5.4 c 0,0 -0.8,0.9 -0.8,1.6 0,1.1 0.9,2 2,2 1,0 1.5,-0.7 1.5,-0.7 0,0 4.6,-5.3 4.6,-5.3 0,0 4.5,5.3 4.5,5.3 0,0 0.5,0.7 1.5,0.7 1.1,0 2,-0.9 2,-2 0,-0.6 -0.8,-1.6 -0.8,-1.6 L 12,21 c 0,0 3.8,-1.6 5,-2.3 0.4,-0.3 1,-0.7 1,-1.7 0,-1.1 -0.9,-2 -2,-2 z M 9,0 C 5.1,0 2,3.1 2,7 c 0,3.9 3.1,7 7,7 3.9,0 7,-3.1 7,-7 C 16,3.1 12.9,0 9,0 Z M 9,10.5 C 7.1,10.5 5.5,8.9 5.5,7 5.5,5.1 7.1,3.5 9,3.5 c 1.9,0 3.5,1.6 3.5,3.5 0,1.9 -1.6,0.5 -0.5,0.5 z"
     id="path2" />
</svg>
