<?xml version="1.0" encoding="UTF-8" standalone="no"?>
<svg
   width="32"
   height="31.192478"
   fill="currentColor"
   viewBox="0 0 32 31.192478"
   version="1.1"
   id="svg4"
   sodipodi:docname="pocket.svg"
   inkscape:version="1.2.2 (1:1.2.2+202212051552+b0a8486541)"
   xmlns:inkscape="http://www.inkscape.org/namespaces/inkscape"
   xmlns:sodipodi="http://sodipodi.sourceforge.net/DTD/sodipodi-0.dtd"
   xmlns="http://www.w3.org/2000/svg"
   xmlns:svg="http://www.w3.org/2000/svg">
  <defs
     id="defs8" />
  <sodipodi:namedview
     id="namedview6"
     pagecolor="#ffffff"
     bordercolor="#000000"
     borderopacity="0.25"
     inkscape:showpageshadow="2"
     inkscape:pageopacity="0.0"
     inkscape:pagecheckerboard="0"
     inkscape:deskcolor="#d1d1d1"
     showgrid="false"
     inkscape:zoom="7.4375"
     inkscape:cx="16"
     inkscape:cy="16.067227"
     inkscape:window-width="1292"
     inkscape:window-height="704"
     inkscape:window-x="0"
     inkscape:window-y="0"
     inkscape:window-maximized="1"
     inkscape:current-layer="svg4" />
  <path
     d="m 25.084,13.065 -7.528,7.882 a 2.104,2.104 0 0 1 -1.521,0.666 2.106,2.106 0 0 1 -1.522,-0.666 L 6.985,13.065 C 6.109,12.151 6.083,10.635 6.92,9.681 7.76,8.726 9.148,8.694 10.02,9.609 l 6.015,6.286 6.022,-6.286 c 0.88,-0.918 2.263,-0.883 3.102,0.071 0.841,0.938 0.82,2.465 -0.06,3.383 z M 31.861,2.089 C 31.463,0.84 30.361,0 29.14,0 H 2.905 C 1.705,0 0.616,0.82 0.189,2.044 0.064,2.407 0,2.787 0,3.169 v 10.539 l 0.112,2.096 c 0.464,4.766 2.73,8.933 6.243,11.838 0.06,0.053 0.125,0.102 0.19,0.153 l 0.04,0.033 c 1.882,1.499 3.986,2.514 6.259,3.014 a 14.662,14.662 0 0 0 6.13,0.052 c 0.118,-0.042 0.235,-0.065 0.353,-0.087 0.03,0 0.065,-0.022 0.098,-0.042 a 15.395,15.395 0 0 0 6.011,-2.945 l 0.039,-0.045 0.18,-0.153 C 29.157,24.72 31.42,20.55 31.903,15.77 L 32,13.674 V 3.154 C 32,2.788 31.959,2.426 31.839,2.074 Z"
     id="path2" />
</svg>
