<?xml version="1.0" encoding="UTF-8" standalone="no"?>
<svg
   width="37.815586"
   height="39.200001"
   fill="currentColor"
   viewBox="0 0 37.815586 39.200001"
   version="1.1"
   id="svg4"
   sodipodi:docname="viber.svg"
   inkscape:version="1.2.2 (1:1.2.2+202212051552+b0a8486541)"
   xmlns:inkscape="http://www.inkscape.org/namespaces/inkscape"
   xmlns:sodipodi="http://sodipodi.sourceforge.net/DTD/sodipodi-0.dtd"
   xmlns="http://www.w3.org/2000/svg"
   xmlns:svg="http://www.w3.org/2000/svg">
  <defs
     id="defs8" />
  <sodipodi:namedview
     id="namedview6"
     pagecolor="#ffffff"
     bordercolor="#000000"
     borderopacity="0.25"
     inkscape:showpageshadow="2"
     inkscape:pageopacity="0.0"
     inkscape:pagecheckerboard="0"
     inkscape:deskcolor="#d1d1d1"
     showgrid="false"
     inkscape:zoom="7.4375"
     inkscape:cx="20.436975"
     inkscape:cy="19.831933"
     inkscape:window-width="1292"
     inkscape:window-height="704"
     inkscape:window-x="0"
     inkscape:window-y="0"
     inkscape:window-maximized="1"
     inkscape:current-layer="svg4" />
  <path
     d="m 19.392048,0 c 9,0.2 16.4,6.2 18,15.2 0.2,1.5 0.3,3 0.4,4.6 a 1,1 0 0 1 -0.8,1.2 h -0.1 a 1.1,1.1 0 0 1 -1,-1.2 v 0 c 0,-1.2 -0.1,-2.5 -0.3,-3.8 a 16.1,16.1 0 0 0 -13,-13.5 c -1,-0.1 -2,-0.2 -3,-0.3 -0.6,0 -1.4,-0.1 -1.6,-0.8 a 1.1,1.1 0 0 1 0.9,-1.2 h 0.6 v 0 z m 10.6,39.2 a 19.9,19.9 0 0 1 -2.1,-0.6 c -6.9,-2.9 -13.2,-6.6 -18.3000003,-12.2 a 47.5,47.5 0 0 1 -7,-10.7 c -0.8,-1.8 -1.60000003,-3.7 -2.40000003,-5.6 -0.6,-1.7 0.3,-3.4 1.40000003,-4.7 a 11.3,11.3 0 0 1 3.7,-2.8 2.4,2.4 0 0 1 3,0.7 39,39 0 0 1 4.7000003,6.5 3.1,3.1 0 0 1 -0.8,4.2 c -0.3,0.2 -0.6,0.5 -1,0.8 a 3.3,3.3 0 0 0 -0.7,0.7 2.1,2.1 0 0 0 -0.1,1.9 c 1.7,4.9 4.7,8.7 9.7,10.8 a 5,5 0 0 0 2.5,0.6 c 1.5,-0.1 2,-1.8 3.1,-2.7 a 2.9,2.9 0 0 1 3.5,-0.1 c 1.1,0.7 2.2,1.4 3.3,2.2 a 37.8,37.8 0 0 1 3.1,2.4 2.4,2.4 0 0 1 0.7,3 10.4,10.4 0 0 1 -4.4,4.8 10.8,10.8 0 0 1 -1.9,0.6 c -0.7,-0.2 0.6,-0.2 0,0 v 0 0 z m 3.1,-21.4 a 4.2,4.2 0 0 1 0,0.6 1,1 0 0 1 -1.9,0.1 2.7,2.7 0 0 1 -0.1,-0.8 10.9,10.9 0 0 0 -1.4,-5.5 10.2,10.2 0 0 0 -4.2,-4 12.3,12.3 0 0 0 -3.4,-1 c -0.5,0 -1,-0.1 -1.5,-0.2 a 0.9,0.9 0 0 1 -0.9,-1 V 5.9 a 0.9,0.9 0 0 1 0.9,-0.9 h 0.1 a 14.1,14.1 0 0 1 5.9,1.5 11.9,11.9 0 0 1 6.5,9.3 c 0,0.1 0,0.3 0,0.5 0,0.4 0,0.9 0,1.5 z m -5.6,-0.2 a 1.1,1.1 0 0 1 -1.2,-0.9 v -0.1 a 11.3,11.3 0 0 0 -0.2,-1.4 4,4 0 0 0 -1.5,-2.3 3.9,3.9 0 0 0 -1.2,-0.5 c -0.5,-0.1 -1.1,-0.1 -1.6,-0.2 a 1,1 0 0 1 -0.8,-1.1 v 0 0 a 1,1 0 0 1 1.1,-0.8 c 3.4,0.2 6,2 6.3,6.2 a 2.8,2.8 0 0 1 0,0.8 0.8,0.8 0 0 1 -0.8,0.7 v 0 0 z"
     id="path2" />
</svg>
