<?xml version="1.0" encoding="UTF-8" standalone="no"?>
<svg
   width="42.886791"
   height="25.014856"
   fill="currentColor"
   viewBox="0 0 42.886791 25.014856"
   version="1.1"
   id="svg4"
   sodipodi:docname="vk.svg"
   inkscape:version="1.2.2 (1:1.2.2+202212051552+b0a8486541)"
   xmlns:inkscape="http://www.inkscape.org/namespaces/inkscape"
   xmlns:sodipodi="http://sodipodi.sourceforge.net/DTD/sodipodi-0.dtd"
   xmlns="http://www.w3.org/2000/svg"
   xmlns:svg="http://www.w3.org/2000/svg">
  <defs
     id="defs8" />
  <sodipodi:namedview
     id="namedview6"
     pagecolor="#ffffff"
     bordercolor="#000000"
     borderopacity="0.25"
     inkscape:showpageshadow="2"
     inkscape:pageopacity="0.0"
     inkscape:pagecheckerboard="0"
     inkscape:deskcolor="#d1d1d1"
     showgrid="false"
     inkscape:zoom="7.4375"
     inkscape:cx="21.915966"
     inkscape:cy="12.302521"
     inkscape:window-width="1292"
     inkscape:window-height="704"
     inkscape:window-x="0"
     inkscape:window-y="0"
     inkscape:window-maximized="1"
     inkscape:current-layer="svg4" />
  <path
     d="m 34.85,25.014855 h -0.2 c -2.17,-0.36 -3.66,-1.92 -4.92,-3.37 -0.72,-0.81 -1.82,-2.66 -3.12,-2.47 -1.85,0.3 -0.93,3.52 -1.71,4.9 -0.62,1.11 -3.29,0.91 -5.12,0.71 -5.79,-0.62 -8.75,-3.77 -11.35,-7.14 A 64.13,64.13 0 0 1 1.51,6.1748555 10.59,10.59 0 0 1 0,1.6848555 c 0.91,-0.81000003 2.47,-0.51 4.02,-0.51 1.31,0 3.36,-0.29000003 4.32,0.2 0.57,0.26 1.14,1.8 1.57,2.8 a 37.18,37.18 0 0 0 3.31,5.82 c 0.56,0.8099995 1.41,2.3499995 2.41,2.1399995 1,-0.21 1.06,-2.6299995 1.1,-4.1799995 0,-1.77 0,-4 -0.5,-4.9 -0.5,-0.9 -1.32,-0.88 -2.17,-1.41 0.73,-1.49000003 2.72,-1.63000003 5.12,-1.63000003 2,0 4.84,-0.23 5.62,1.12000003 0.78,1.35 0.25,3.85 0.2,5.71 -0.06,2.09 -0.41,4.2499995 1,5.2099995 1.09,-0.12 1.68,-1.2 2.31,-2 a 28,28 0 0 0 3.32,-5.8799995 c 0.44,-1 0.91,-2.65 1.71,-3 1.21,-0.47000003 3.15,-0.1 4.92,-0.1 1.46,0 4.05,-0.41000003 4.52,0.61 0.39,0.85 -0.75,3 -1.1,3.57 a 61.88,61.88 0 0 1 -4.12,5.6099995 c -0.58,0.78 -1.78,2 -1.71,3.27 0.05,0.94 1,1.67 1.71,2.35 a 33.12,33.12 0 0 1 3.92,4.18 c 0.47,0.62 1.5,2 1.4,2.76 -0.31,2.56 -6.09,0.99 -8.03,1.59 z"
     id="path2" />
</svg>
