<?xml version="1.0" encoding="UTF-8" standalone="no"?>
<svg
   width="40.795788"
   height="43.429001"
   fill="currentColor"
   viewBox="0 0 40.795788 43.429001"
   version="1.1"
   id="svg4"
   sodipodi:docname="workplace.svg"
   inkscape:version="1.2.2 (1:1.2.2+202212051552+b0a8486541)"
   xmlns:inkscape="http://www.inkscape.org/namespaces/inkscape"
   xmlns:sodipodi="http://sodipodi.sourceforge.net/DTD/sodipodi-0.dtd"
   xmlns="http://www.w3.org/2000/svg"
   xmlns:svg="http://www.w3.org/2000/svg">
  <defs
     id="defs8" />
  <sodipodi:namedview
     id="namedview6"
     pagecolor="#ffffff"
     bordercolor="#000000"
     borderopacity="0.25"
     inkscape:showpageshadow="2"
     inkscape:pageopacity="0.0"
     inkscape:pagecheckerboard="0"
     inkscape:deskcolor="#d1d1d1"
     showgrid="false"
     inkscape:zoom="7.4375"
     inkscape:cx="20.436975"
     inkscape:cy="21.714286"
     inkscape:window-width="1292"
     inkscape:window-height="704"
     inkscape:window-x="0"
     inkscape:window-y="0"
     inkscape:window-maximized="1"
     inkscape:current-layer="svg4" />
  <path
     d="m 22.413,0 c 0.21,0.017 0.423,0.034 0.636,0.049 3.657,0.262 6.976,1.464 9.929,3.635 3.331,2.448 5.635,5.65 6.914,9.584 0.699,2.152 0.983,4.365 0.885,6.623 -0.136,3.171 -1.008,6.13 -2.619,8.867 -0.442,0.75 -0.908,1.492 -1.495,2.141 -0.588,0.651 -1.29,1.141 -2.146,1.383 -1.496,0.426 -3.247,-0.283 -3.961,-1.642 -0.26,-0.494 -0.442,-1.028 -0.654,-1.548 -1.156,-2.838 -2.311,-5.679 -3.465,-8.519 -0.017,-0.042 -0.037,-0.082 -0.065,-0.145 -0.101,0.245 -0.192,0.472 -0.284,0.698 -1.237,3.051 -2.475,6.103 -3.711,9.155 -0.466,1.153 -1.351,1.815 -2.538,2.045 -1.391,0.267 -2.577,-0.154 -3.496,-1.247 C 16.169,30.87 16.033,30.615 15.928,30.362 13.8,25.142 11.68,19.92 9.558,14.697 9.546,14.668 9.537,14.638 9.522,14.593 c 0.054,-0.003 0.103,-0.006 0.15,-0.006 1.498,-10e-4 2.997,0 4.495,-0.004 0.12,-10e-4 0.176,0.03 0.222,0.146 1.557,3.846 3.117,7.691 4.679,11.536 0.018,0.046 0.039,0.091 0.067,0.159 0.273,-0.673 0.536,-1.32 0.797,-1.968 1.064,-2.627 2.137,-5.25 3.19,-7.883 0.482,-1.208 1.376,-1.917 2.621,-2.135 1.454,-0.255 2.644,0.257 3.522,1.449 0.133,0.18 0.229,0.393 0.313,0.603 1.425,3.495 2.848,6.991 4.269,10.488 0.02,0.047 0.04,0.093 0.073,0.172 0.196,-0.327 0.385,-0.625 0.559,-0.935 0.783,-1.397 1.323,-2.886 1.614,-4.461 0.242,-1.312 0.304,-2.634 0.187,-3.962 C 36.038,15.071 35.12,12.6 33.488,10.412 31.295,7.473 28.402,5.588 24.815,4.787 23.262,4.441 21.691,4.382 20.11,4.53 16.948,4.828 14.074,5.896 11.525,7.788 8.111,10.322 5.887,13.659 4.902,17.804 c -0.417,1.76 -0.546,3.547 -0.384,5.348 0.417,4.601 2.359,8.444 5.804,11.517 2.325,2.073 5.037,3.393 8.094,3.989 1.617,0.317 3.247,0.395 4.889,0.242 1,-0.094 1.982,-0.268 2.952,-0.529 0.04,-0.01 0.081,-0.018 0.128,-0.028 0,1.526 0,3.047 0,4.586 -0.402,0.074 -0.805,0.154 -1.21,0.221 -0.861,0.14 -1.728,0.231 -2.601,0.258 -0.035,0.002 -0.071,0.013 -0.108,0.021 -0.493,0 -0.983,0 -1.476,0 -0.049,-0.007 -0.1,-0.018 -0.149,-0.022 C 20.526,43.388 20.212,43.374 19.896,43.349 18.534,43.244 17.194,43.003 15.879,42.633 12.625,41.719 9.734,40.138 7.219,37.881 5.024,35.91 3.293,33.591 2.043,30.918 0.891,28.452 0.221,25.861 0.05,23.144 0.036,22.918 0.017,22.693 0,22.468 0,21.966 0,21.465 0,20.964 0.008,20.915 0.02,20.865 0.022,20.816 0.058,19.791 0.174,18.773 0.36,17.764 0.841,15.148 1.769,12.698 3.16,10.433 5.386,6.808 8.41,4.047 12.234,2.179 14.77,0.939 17.451,0.232 20.271,0.053 20.501,0.038 20.732,0.019 20.962,0.002 21.446,0 21.929,0 22.413,0 Z"
     id="path2" />
</svg>
